# xmcd CD database file
#
# Track frame offsets:
#	150
#	12272
#	22231
#	36526
#	50828
#	61650
#	78679
#	95086
#	110178
#	124603
#
# Disc length: 1834 seconds
#
# Revision: 2
# Processed by: cddbd v1.5.2PL0 Copyright (c) Steve Scherf et al.
# Submitted via: CDex 1.51
#
DISCID=9007280a
DTITLE=Asleep at the Wheel - 10
DYEAR=1987
DGENRE=Country
TTITLE0=Way Down Texas Way
TTITLE1=Tulsa Straight Ahead
TTITLE2=Coast to Coast
TTITLE3=House of Blue Lights
TTITLE4=Blowin' Like a Bandit
TTITLE5=I Want a New Drug
TTITLE6=Big Foot Stomp
TTITLE7=Boogie Back to Texas
TTITLE8=String of Pars
TTITLE9=Blues Stay Away From Me
EXTD=YEAR: 1987
EXTT0=
EXTT1=
EXTT2=
EXTT3=
EXTT4=
EXTT5=
EXTT6=
EXTT7=
EXTT8=
EXTT9=
PLAYORDER=
